<mxfile host="app.diagrams.net" modified="2023-10-20T06:40:41.813Z" agent="Mozilla/5.0 (Windows NT 10.0; Win64; x64) AppleWebKit/537.36 (KHTML, like Gecko) Chrome/118.0.0.0 Safari/537.36" version="22.0.5" etag="IaAhPAjBYffPcRKWPR7P" type="github">
  <diagram name="Page-1" id="tplXD4gq7N_cN_KU1sje">
    <mxGraphModel>
      <root>
        <mxCell id="0" />
        <mxCell id="1" parent="0" />
      </root>
    </mxGraphModel>
  </diagram>
</mxfile>
